<svg width="430" height="100" viewBox="0 0 430 100" fill="none" xmlns="http://www.w3.org/2000/svg">
<mask id="path-1-outside-1_5_52" maskUnits="userSpaceOnUse" x="0" y="0" width="430" height="100" fill="black">
<rect fill="white" width="430" height="100"/>
<path d="M2.888 86.12L39.88 43.88H1.608V33H54.6V43.88L17.608 86.12H55.88V97H2.888V86.12ZM128.046 66.408H74.158C74.414 78.568 82.862 87.144 95.918 87.144C106.286 87.144 113.326 81.512 115.63 72.808H128.046C125.23 88.808 113.326 98.28 95.662 98.28C75.438 98.28 61.998 84.968 61.998 65C61.998 45.032 75.438 31.72 95.662 31.72C114.99 31.72 128.174 43.496 128.046 62.824V66.408ZM75.054 57.064H115.374C113.454 47.72 106.286 42.088 95.79 42.088C85.294 42.088 77.614 48.36 75.054 57.064ZM150.783 62.952V97H138.623V63.976C138.623 44.648 151.551 31.72 171.519 31.72C190.847 31.72 203.775 44.648 203.775 63.976V97H191.487V62.952C191.487 51.048 183.295 43.112 171.007 43.112C159.103 43.112 150.783 51.176 150.783 62.952ZM214.373 97V33H226.533V85.096C232.421 85.096 259.557 85.864 259.557 49.384V33H271.845V48.232C271.845 79.592 254.565 97 228.325 97H214.373ZM280.998 65C280.998 45.032 294.438 31.72 314.662 31.72C334.886 31.72 348.326 45.032 348.326 65C348.326 84.968 334.886 98.28 314.662 98.28C294.438 98.28 280.998 84.968 280.998 65ZM293.158 65C293.158 78.056 301.734 86.888 314.662 86.888C327.59 86.888 336.166 78.056 336.166 65C336.166 51.944 327.59 43.112 314.662 43.112C301.734 43.112 293.158 51.944 293.158 65ZM358.873 97V0.999992H371.033V79.208L404.441 33H418.521L397.273 61.672L426.969 97H412.249L390.233 71.016L371.033 97H358.873Z"/>
</mask>
<path d="M2.888 86.12L39.88 43.88H1.608V33H54.6V43.88L17.608 86.12H55.88V97H2.888V86.12ZM128.046 66.408H74.158C74.414 78.568 82.862 87.144 95.918 87.144C106.286 87.144 113.326 81.512 115.63 72.808H128.046C125.23 88.808 113.326 98.28 95.662 98.28C75.438 98.28 61.998 84.968 61.998 65C61.998 45.032 75.438 31.72 95.662 31.72C114.99 31.72 128.174 43.496 128.046 62.824V66.408ZM75.054 57.064H115.374C113.454 47.72 106.286 42.088 95.79 42.088C85.294 42.088 77.614 48.36 75.054 57.064ZM150.783 62.952V97H138.623V63.976C138.623 44.648 151.551 31.72 171.519 31.72C190.847 31.72 203.775 44.648 203.775 63.976V97H191.487V62.952C191.487 51.048 183.295 43.112 171.007 43.112C159.103 43.112 150.783 51.176 150.783 62.952ZM214.373 97V33H226.533V85.096C232.421 85.096 259.557 85.864 259.557 49.384V33H271.845V48.232C271.845 79.592 254.565 97 228.325 97H214.373ZM280.998 65C280.998 45.032 294.438 31.72 314.662 31.72C334.886 31.72 348.326 45.032 348.326 65C348.326 84.968 334.886 98.28 314.662 98.28C294.438 98.28 280.998 84.968 280.998 65ZM293.158 65C293.158 78.056 301.734 86.888 314.662 86.888C327.59 86.888 336.166 78.056 336.166 65C336.166 51.944 327.59 43.112 314.662 43.112C301.734 43.112 293.158 51.944 293.158 65ZM358.873 97V0.999992H371.033V79.208L404.441 33H418.521L397.273 61.672L426.969 97H412.249L390.233 71.016L371.033 97H358.873Z" fill="white"/>
<path d="M2.888 86.12L2.13571 85.4612L1.888 85.744V86.12H2.888ZM39.88 43.88L40.6323 44.5388L42.085 42.88H39.88V43.88ZM1.608 43.88H0.608V44.88H1.608V43.88ZM1.608 33V32H0.608V33H1.608ZM54.6 33H55.6V32H54.6V33ZM54.6 43.88L55.3523 44.5388L55.6 44.256V43.88H54.6ZM17.608 86.12L16.8557 85.4612L15.403 87.12H17.608V86.12ZM55.88 86.12H56.88V85.12H55.88V86.12ZM55.88 97V98H56.88V97H55.88ZM2.888 97H1.888V98H2.888V97ZM2.888 86.12L3.64029 86.7788L40.6323 44.5388L39.88 43.88L39.1277 43.2212L2.13571 85.4612L2.888 86.12ZM39.88 43.88V42.88H1.608V43.88V44.88H39.88V43.88ZM1.608 43.88H2.608V33H1.608H0.608V43.88H1.608ZM1.608 33V34H54.6V33V32H1.608V33ZM54.6 33H53.6V43.88H54.6H55.6V33H54.6ZM54.6 43.88L53.8477 43.2212L16.8557 85.4612L17.608 86.12L18.3603 86.7788L55.3523 44.5388L54.6 43.88ZM17.608 86.12V87.12H55.88V86.12V85.12H17.608V86.12ZM55.88 86.12H54.88V97H55.88H56.88V86.12H55.88ZM55.88 97V96H2.888V97V98H55.88V97ZM2.888 97H3.888V86.12H2.888H1.888V97H2.888ZM128.046 66.408V67.408H129.046V66.408H128.046ZM74.158 66.408V65.408H73.1367L73.1582 66.429L74.158 66.408ZM115.63 72.808V71.808H114.86L114.663 72.5521L115.63 72.808ZM128.046 72.808L129.031 72.9813L129.237 71.808H128.046V72.808ZM128.046 62.824L127.046 62.8174V62.824H128.046ZM75.054 57.064L74.0946 56.7818L73.7175 58.064H75.054V57.064ZM115.374 57.064V58.064H116.6L116.354 56.8627L115.374 57.064ZM128.046 66.408V65.408H74.158V66.408V67.408H128.046V66.408ZM74.158 66.408L73.1582 66.429C73.2911 72.7408 75.5554 78.1857 79.5416 82.0537C83.5283 85.9221 89.1657 88.144 95.918 88.144V87.144V86.144C89.6143 86.144 84.4997 84.0779 80.9344 80.6183C77.3686 77.1583 75.2809 72.2352 75.1578 66.387L74.158 66.408ZM95.918 87.144V88.144C101.286 88.144 105.856 86.6839 109.396 84.0414C112.938 81.398 115.392 77.6133 116.597 73.0639L115.63 72.808L114.663 72.5521C113.564 76.7067 111.346 80.09 108.2 82.4386C105.052 84.7881 100.918 86.144 95.918 86.144V87.144ZM115.63 72.808V73.808H128.046V72.808V71.808H115.63V72.808ZM128.046 72.808L127.061 72.6347C125.69 80.4225 122.123 86.5608 116.803 90.7589C111.476 94.9616 104.315 97.28 95.662 97.28V98.28V99.28C104.673 99.28 112.296 96.8624 118.041 92.3291C123.793 87.7912 127.586 81.1935 129.031 72.9813L128.046 72.808ZM95.662 98.28V97.28C85.7736 97.28 77.6235 94.0297 71.9492 88.417C66.2759 82.8054 62.998 74.7538 62.998 65H61.998H60.998C60.998 75.2142 64.4401 83.8026 70.5428 89.839C76.6445 95.8743 85.3264 99.28 95.662 99.28V98.28ZM61.998 65H62.998C62.998 55.2462 66.2759 47.1946 71.9492 41.583C77.6235 35.9703 85.7736 32.72 95.662 32.72V31.72V30.72C85.3264 30.72 76.6445 34.1257 70.5428 40.161C64.4401 46.1973 60.998 54.7858 60.998 65H61.998ZM95.662 31.72V32.72C105.125 32.72 112.99 35.6003 118.465 40.7523C123.931 45.8965 127.108 53.3924 127.046 62.8174L128.046 62.824L129.046 62.8306C129.112 52.9276 125.761 44.8715 119.835 39.2957C113.918 33.7277 105.527 30.72 95.662 30.72V31.72ZM128.046 62.824H127.046V66.408H128.046H129.046V62.824H128.046ZM75.054 57.064V58.064H115.374V57.064V56.064H75.054V57.064ZM115.374 57.064L116.354 56.8627C115.35 51.9812 112.962 48.0172 109.408 45.2798C105.859 42.5459 101.218 41.088 95.79 41.088V42.088V43.088C100.858 43.088 105.049 44.4461 108.188 46.8642C111.322 49.2788 113.478 52.8028 114.394 57.2653L115.374 57.064ZM95.79 42.088V41.088C84.8509 41.088 76.78 47.6517 74.0946 56.7818L75.054 57.064L76.0134 57.3462C78.448 49.0682 85.7371 43.088 95.79 43.088V42.088ZM150.783 97V98H151.783V97H150.783ZM138.623 97H137.623V98H138.623V97ZM203.775 97V98H204.775V97H203.775ZM191.487 97H190.487V98H191.487V97ZM150.783 62.952H149.783V97H150.783H151.783V62.952H150.783ZM150.783 97V96H138.623V97V98H150.783V97ZM138.623 97H139.623V63.976H138.623H137.623V97H138.623ZM138.623 63.976H139.623C139.623 54.5405 142.774 46.7463 148.285 41.3121C153.797 35.8769 161.755 32.72 171.519 32.72V31.72V30.72C161.315 30.72 152.825 34.0271 146.881 39.8879C140.936 45.7497 137.623 54.0835 137.623 63.976H138.623ZM171.519 31.72V32.72C180.955 32.72 188.752 35.8714 194.188 41.3071C199.624 46.7428 202.775 54.5401 202.775 63.976H203.775H204.775C204.775 54.0839 201.462 45.7531 195.602 39.8929C189.742 34.0326 181.411 30.72 171.519 30.72V31.72ZM203.775 63.976H202.775V97H203.775H204.775V63.976H203.775ZM203.775 97V96H191.487V97V98H203.775V97ZM191.487 97H192.487V62.952H191.487H190.487V97H191.487ZM191.487 62.952H192.487C192.487 56.763 190.352 51.5324 186.551 47.8498C182.752 44.1699 177.369 42.112 171.007 42.112V43.112V44.112C176.933 44.112 181.79 46.0221 185.159 49.2862C188.526 52.5476 190.487 57.237 190.487 62.952H191.487ZM171.007 43.112V42.112C164.825 42.112 159.508 44.2095 155.732 47.9009C151.954 51.5943 149.783 56.8206 149.783 62.952H150.783H151.783C151.783 57.3074 153.772 52.6137 157.13 49.3311C160.49 46.0465 165.285 44.112 171.007 44.112V43.112ZM214.373 97H213.373V98H214.373V97ZM214.373 33V32H213.373V33H214.373ZM226.533 33H227.533V32H226.533V33ZM226.533 85.096H225.533V86.096H226.533V85.096ZM259.557 33V32H258.557V33H259.557ZM271.845 33H272.845V32H271.845V33ZM214.373 97H215.373V33H214.373H213.373V97H214.373ZM214.373 33V34H226.533V33V32H214.373V33ZM226.533 33H225.533V85.096H226.533H227.533V33H226.533ZM226.533 85.096V86.096C229.458 86.096 237.974 86.3045 245.755 81.7847C253.637 77.2066 260.557 67.9136 260.557 49.384H259.557H258.557C258.557 67.3344 251.909 75.8974 244.751 80.0553C237.492 84.2715 229.496 84.096 226.533 84.096V85.096ZM259.557 49.384H260.557V33H259.557H258.557V49.384H259.557ZM259.557 33V34H271.845V33V32H259.557V33ZM271.845 33H270.845V48.232H271.845H272.845V33H271.845ZM271.845 48.232H270.845C270.845 63.7334 266.576 75.6589 259.189 83.6994C251.81 91.7306 241.216 96 228.325 96V97V98C241.674 98 252.84 93.5654 260.661 85.0526C268.474 76.5491 272.845 64.0906 272.845 48.232H271.845ZM228.325 97V96H214.373V97V98H228.325V97ZM280.998 65H281.998C281.998 55.2462 285.276 47.1946 290.949 41.583C296.624 35.9703 304.774 32.72 314.662 32.72V31.72V30.72C304.326 30.72 295.644 34.1257 289.543 40.161C283.44 46.1973 279.998 54.7858 279.998 65H280.998ZM314.662 31.72V32.72C324.55 32.72 332.7 35.9703 338.375 41.583C344.048 47.1946 347.326 55.2462 347.326 65H348.326H349.326C349.326 54.7858 345.884 46.1973 339.781 40.161C333.68 34.1257 324.998 30.72 314.662 30.72V31.72ZM348.326 65H347.326C347.326 74.7538 344.048 82.8054 338.375 88.417C332.7 94.0297 324.55 97.28 314.662 97.28V98.28V99.28C324.998 99.28 333.68 95.8743 339.781 89.839C345.884 83.8026 349.326 75.2142 349.326 65H348.326ZM314.662 98.28V97.28C304.774 97.28 296.624 94.0297 290.949 88.417C285.276 82.8054 281.998 74.7538 281.998 65H280.998H279.998C279.998 75.2142 283.44 83.8026 289.543 89.839C295.644 95.8743 304.326 99.28 314.662 99.28V98.28ZM293.158 65H292.158C292.158 71.7504 294.379 77.4865 298.347 81.5396C302.318 85.5948 307.963 87.888 314.662 87.888V86.888V85.888C308.433 85.888 303.326 83.7652 299.777 80.1404C296.225 76.5135 294.158 71.3056 294.158 65H293.158ZM314.662 86.888V87.888C321.361 87.888 327.006 85.5948 330.977 81.5396C334.945 77.4865 337.166 71.7504 337.166 65H336.166H335.166C335.166 71.3056 333.099 76.5135 329.547 80.1404C325.998 83.7652 320.891 85.888 314.662 85.888V86.888ZM336.166 65H337.166C337.166 58.2496 334.945 52.5135 330.977 48.4604C327.006 44.4052 321.361 42.112 314.662 42.112V43.112V44.112C320.891 44.112 325.998 46.2348 329.547 49.8596C333.099 53.4865 335.166 58.6944 335.166 65H336.166ZM314.662 43.112V42.112C307.963 42.112 302.318 44.4052 298.347 48.4604C294.379 52.5135 292.158 58.2496 292.158 65H293.158H294.158C294.158 58.6944 296.225 53.4865 299.777 49.8596C303.326 46.2348 308.433 44.112 314.662 44.112V43.112ZM358.873 97H357.873V98H358.873V97ZM358.873 0.999992V-7.62939e-06H357.873V0.999992H358.873ZM371.033 0.999992H372.033V-7.62939e-06H371.033V0.999992ZM371.033 79.208H370.033V82.2979L371.843 79.7939L371.033 79.208ZM404.441 33V32H403.93L403.631 32.4141L404.441 33ZM418.521 33L419.324 33.5954L420.507 32H418.521V33ZM397.273 61.672L396.47 61.0766L395.999 61.711L396.508 62.3154L397.273 61.672ZM426.969 97V98H429.116L427.734 96.3565L426.969 97ZM412.249 97L411.486 97.6464L411.786 98H412.249V97ZM390.233 71.016L390.996 70.3696L390.179 69.4058L389.429 70.4217L390.233 71.016ZM371.033 97V98H371.537L371.837 97.5943L371.033 97ZM358.873 97H359.873V0.999992H358.873H357.873V97H358.873ZM358.873 0.999992V1.99999H371.033V0.999992V-7.62939e-06H358.873V0.999992ZM371.033 0.999992H370.033V79.208H371.033H372.033V0.999992H371.033ZM371.033 79.208L371.843 79.7939L405.251 33.5859L404.441 33L403.631 32.4141L370.223 78.6221L371.033 79.208ZM404.441 33V34H418.521V33V32H404.441V33ZM418.521 33L417.718 32.4046L396.47 61.0766L397.273 61.672L398.076 62.2674L419.324 33.5954L418.521 33ZM397.273 61.672L396.508 62.3154L426.204 97.6435L426.969 97L427.734 96.3565L398.038 61.0285L397.273 61.672ZM426.969 97V96H412.249V97V98H426.969V97ZM412.249 97L413.012 96.3536L390.996 70.3696L390.233 71.016L389.47 71.6624L411.486 97.6464L412.249 97ZM390.233 71.016L389.429 70.4217L370.229 96.4057L371.033 97L371.837 97.5943L391.037 71.6103L390.233 71.016ZM371.033 97V96H358.873V97V98H371.033V97Z" fill="white" mask="url(#path-1-outside-1_5_52)"/>
</svg>
